<mxfile host="app.diagrams.net" modified="2023-07-24T14:55:08.752Z" agent="Mozilla/5.0 (X11; Linux x86_64) AppleWebKit/537.36 (KHTML, like Gecko) Chrome/115.0.0.0 Safari/537.36" etag="fIJfe2yV0rLaBAFgnxTI" version="21.6.5" type="google">
  <diagram name="Page-1" id="SFV0DPMBpy5tl9tK5UpT">
    <mxGraphModel grid="1" page="1" gridSize="10" guides="1" tooltips="1" connect="1" arrows="1" fold="1" pageScale="1" pageWidth="827" pageHeight="1169" math="0" shadow="0">
      <root>
        <mxCell id="0" />
        <mxCell id="1" parent="0" />
        <mxCell id="krKL_mxPOFj_XPniPA5U-14" style="edgeStyle=orthogonalEdgeStyle;rounded=0;orthogonalLoop=1;jettySize=auto;html=1;exitX=1;exitY=0.5;exitDx=0;exitDy=0;entryX=0.513;entryY=0.131;entryDx=0;entryDy=0;entryPerimeter=0;" edge="1" parent="1" source="krKL_mxPOFj_XPniPA5U-5" target="krKL_mxPOFj_XPniPA5U-8">
          <mxGeometry relative="1" as="geometry" />
        </mxCell>
        <mxCell id="krKL_mxPOFj_XPniPA5U-5" value="Workflow App1" style="rounded=0;whiteSpace=wrap;html=1;fillColor=#dae8fc;strokeColor=#6c8ebf;" vertex="1" parent="1">
          <mxGeometry x="80" y="100" width="120" height="60" as="geometry" />
        </mxCell>
        <mxCell id="krKL_mxPOFj_XPniPA5U-12" style="edgeStyle=orthogonalEdgeStyle;rounded=0;orthogonalLoop=1;jettySize=auto;html=1;entryX=0.07;entryY=0.4;entryDx=0;entryDy=0;entryPerimeter=0;" edge="1" parent="1" source="krKL_mxPOFj_XPniPA5U-6" target="krKL_mxPOFj_XPniPA5U-8">
          <mxGeometry relative="1" as="geometry" />
        </mxCell>
        <mxCell id="krKL_mxPOFj_XPniPA5U-6" value="Workflow App2" style="rounded=0;whiteSpace=wrap;html=1;fillColor=#dae8fc;strokeColor=#6c8ebf;" vertex="1" parent="1">
          <mxGeometry x="80" y="180" width="120" height="60" as="geometry" />
        </mxCell>
        <mxCell id="krKL_mxPOFj_XPniPA5U-16" style="edgeStyle=orthogonalEdgeStyle;rounded=0;orthogonalLoop=1;jettySize=auto;html=1;entryX=0.225;entryY=0.825;entryDx=0;entryDy=0;entryPerimeter=0;" edge="1" parent="1" source="krKL_mxPOFj_XPniPA5U-7" target="krKL_mxPOFj_XPniPA5U-8">
          <mxGeometry relative="1" as="geometry">
            <mxPoint x="220" y="280" as="targetPoint" />
          </mxGeometry>
        </mxCell>
        <mxCell id="krKL_mxPOFj_XPniPA5U-7" value="Workflow App3" style="rounded=0;whiteSpace=wrap;html=1;fillColor=#dae8fc;strokeColor=#6c8ebf;" vertex="1" parent="1">
          <mxGeometry x="80" y="260" width="120" height="60" as="geometry" />
        </mxCell>
        <mxCell id="krKL_mxPOFj_XPniPA5U-8" value="Cloud" style="ellipse;shape=cloud;whiteSpace=wrap;html=1;fillColor=#dae8fc;strokeColor=#6c8ebf;" vertex="1" parent="1">
          <mxGeometry x="230" y="170" width="120" height="80" as="geometry" />
        </mxCell>
        <mxCell id="krKL_mxPOFj_XPniPA5U-9" value="Job Service" style="rounded=0;whiteSpace=wrap;html=1;fillColor=#d5e8d4;strokeColor=#82b366;" vertex="1" parent="1">
          <mxGeometry x="260" y="310" width="120" height="60" as="geometry" />
        </mxCell>
        <mxCell id="krKL_mxPOFj_XPniPA5U-10" value="" style="shape=flexArrow;endArrow=classic;startArrow=classic;html=1;rounded=0;entryX=0;entryY=0.5;entryDx=0;entryDy=0;startWidth=9;startSize=1.72;endWidth=9;endSize=2.665;width=5;exitX=0.667;exitY=1.067;exitDx=0;exitDy=0;exitPerimeter=0;fillColor=#dae8fc;strokeColor=#6c8ebf;" edge="1" parent="1" source="krKL_mxPOFj_XPniPA5U-7" target="krKL_mxPOFj_XPniPA5U-9">
          <mxGeometry width="100" height="100" relative="1" as="geometry">
            <mxPoint x="160" y="330" as="sourcePoint" />
            <mxPoint x="370" y="330" as="targetPoint" />
            <Array as="points">
              <mxPoint x="160" y="340" />
              <mxPoint x="220" y="340" />
            </Array>
          </mxGeometry>
        </mxCell>
        <mxCell id="krKL_mxPOFj_XPniPA5U-11" value="" style="endArrow=classic;html=1;rounded=0;exitX=0.308;exitY=-0.008;exitDx=0;exitDy=0;entryX=0.55;entryY=0.95;entryDx=0;entryDy=0;entryPerimeter=0;exitPerimeter=0;" edge="1" parent="1" source="krKL_mxPOFj_XPniPA5U-9" target="krKL_mxPOFj_XPniPA5U-8">
          <mxGeometry width="50" height="50" relative="1" as="geometry">
            <mxPoint x="320" y="300" as="sourcePoint" />
            <mxPoint x="370" y="250" as="targetPoint" />
          </mxGeometry>
        </mxCell>
        <mxCell id="krKL_mxPOFj_XPniPA5U-17" value="" style="whiteSpace=wrap;html=1;aspect=fixed;fillColor=#ffe6cc;strokeColor=#d79b00;" vertex="1" parent="1">
          <mxGeometry x="400" y="150" width="130" height="130" as="geometry" />
        </mxCell>
        <mxCell id="krKL_mxPOFj_XPniPA5U-19" value="" style="rounded=0;whiteSpace=wrap;html=1;fillColor=#ffe6cc;strokeColor=#d79b00;" vertex="1" parent="1">
          <mxGeometry x="430" y="220" width="100" height="60" as="geometry" />
        </mxCell>
        <mxCell id="krKL_mxPOFj_XPniPA5U-21" value="" style="rounded=0;whiteSpace=wrap;html=1;direction=west;fillColor=#ffe6cc;strokeColor=#d79b00;" vertex="1" parent="1">
          <mxGeometry x="400" y="150" width="30" height="130" as="geometry" />
        </mxCell>
        <mxCell id="krKL_mxPOFj_XPniPA5U-23" value="" style="rounded=0;whiteSpace=wrap;html=1;fillColor=#ffe6cc;strokeColor=#d79b00;" vertex="1" parent="1">
          <mxGeometry x="430" y="150" width="30" height="70" as="geometry" />
        </mxCell>
        <mxCell id="krKL_mxPOFj_XPniPA5U-25" value="" style="rounded=0;whiteSpace=wrap;html=1;fillColor=#ffe6cc;strokeColor=#d79b00;" vertex="1" parent="1">
          <mxGeometry x="460" y="190" width="70" height="30" as="geometry" />
        </mxCell>
        <mxCell id="krKL_mxPOFj_XPniPA5U-26" value="" style="rounded=0;whiteSpace=wrap;html=1;fillColor=#ffe6cc;strokeColor=#d79b00;" vertex="1" parent="1">
          <mxGeometry x="460" y="150" width="70" height="40" as="geometry" />
        </mxCell>
        <mxCell id="krKL_mxPOFj_XPniPA5U-27" value="Data Index" style="text;html=1;align=center;verticalAlign=middle;resizable=0;points=[];autosize=1;rotation=90;" vertex="1" parent="1">
          <mxGeometry x="375" y="200" width="80" height="30" as="geometry" />
        </mxCell>
        <mxCell id="krKL_mxPOFj_XPniPA5U-28" value="GraphQL" style="text;html=1;align=center;verticalAlign=middle;resizable=0;points=[];autosize=1;rotation=90;" vertex="1" parent="1">
          <mxGeometry x="410" y="170" width="70" height="30" as="geometry" />
        </mxCell>
        <mxCell id="krKL_mxPOFj_XPniPA5U-29" value="&lt;font style=&quot;font-size: 11px;&quot;&gt;Gateway API&lt;/font&gt;" style="text;html=1;align=center;verticalAlign=middle;resizable=0;points=[];autosize=1;" vertex="1" parent="1">
          <mxGeometry x="450" y="155" width="90" height="30" as="geometry" />
        </mxCell>
        <mxCell id="krKL_mxPOFj_XPniPA5U-30" value="&lt;font style=&quot;font-size: 11px;&quot;&gt;Queries&lt;/font&gt;" style="text;html=1;align=center;verticalAlign=middle;resizable=0;points=[];autosize=1;" vertex="1" parent="1">
          <mxGeometry x="465" y="190" width="60" height="30" as="geometry" />
        </mxCell>
        <mxCell id="krKL_mxPOFj_XPniPA5U-31" value="Data&lt;br&gt;Indexation" style="text;html=1;align=center;verticalAlign=middle;resizable=0;points=[];autosize=1;strokeColor=none;fillColor=none;" vertex="1" parent="1">
          <mxGeometry x="440" y="230" width="80" height="40" as="geometry" />
        </mxCell>
        <mxCell id="krKL_mxPOFj_XPniPA5U-32" value="Database" style="shape=cylinder3;whiteSpace=wrap;html=1;boundedLbl=1;backgroundOutline=1;size=15;fillColor=#dae8fc;strokeColor=#6c8ebf;" vertex="1" parent="1">
          <mxGeometry x="590" y="170" width="90" height="80" as="geometry" />
        </mxCell>
        <mxCell id="krKL_mxPOFj_XPniPA5U-33" value="" style="shape=flexArrow;endArrow=classic;html=1;rounded=0;width=3.2;endSize=3.4;endWidth=7.68;fillColor=#ffe6cc;strokeColor=#d79b00;" edge="1" parent="1">
          <mxGeometry width="50" height="50" relative="1" as="geometry">
            <mxPoint x="470" y="150" as="sourcePoint" />
            <mxPoint x="140" y="90" as="targetPoint" />
            <Array as="points">
              <mxPoint x="470" y="60" />
              <mxPoint x="300" y="60" />
              <mxPoint x="140" y="60" />
            </Array>
          </mxGeometry>
        </mxCell>
        <mxCell id="krKL_mxPOFj_XPniPA5U-34" value="" style="shape=flexArrow;endArrow=classic;html=1;rounded=0;width=3.2;endSize=3.4;endWidth=7.68;fillColor=#ffe6cc;strokeColor=#d79b00;" edge="1" parent="1">
          <mxGeometry width="50" height="50" relative="1" as="geometry">
            <mxPoint x="480" y="150" as="sourcePoint" />
            <mxPoint x="70" y="210" as="targetPoint" />
            <Array as="points">
              <mxPoint x="480" y="40" />
              <mxPoint x="308" y="40" />
              <mxPoint x="50" y="40" />
              <mxPoint x="50" y="210" />
            </Array>
          </mxGeometry>
        </mxCell>
        <mxCell id="krKL_mxPOFj_XPniPA5U-35" value="" style="shape=flexArrow;endArrow=classic;html=1;rounded=0;width=3.2;endSize=3.4;endWidth=7.68;fillColor=#ffe6cc;strokeColor=#d79b00;exitX=0.429;exitY=0;exitDx=0;exitDy=0;exitPerimeter=0;" edge="1" parent="1" source="krKL_mxPOFj_XPniPA5U-26">
          <mxGeometry width="50" height="50" relative="1" as="geometry">
            <mxPoint x="490" y="140" as="sourcePoint" />
            <mxPoint x="70" y="290" as="targetPoint" />
            <Array as="points">
              <mxPoint x="490" y="20" />
              <mxPoint x="283" y="20" />
              <mxPoint x="25" y="20" />
              <mxPoint x="25" y="290" />
            </Array>
          </mxGeometry>
        </mxCell>
        <mxCell id="krKL_mxPOFj_XPniPA5U-39" value="" style="shape=flexArrow;endArrow=classic;html=1;rounded=0;width=3.2;endSize=3.4;endWidth=7.68;fillColor=#ffe6cc;strokeColor=#d79b00;entryX=1;entryY=0.5;entryDx=0;entryDy=0;" edge="1" parent="1" target="krKL_mxPOFj_XPniPA5U-9">
          <mxGeometry width="50" height="50" relative="1" as="geometry">
            <mxPoint x="500" y="150" as="sourcePoint" />
            <mxPoint x="80" y="300" as="targetPoint" />
            <Array as="points">
              <mxPoint x="500" y="110" />
              <mxPoint x="570" y="110" />
              <mxPoint x="700" y="110" />
              <mxPoint x="700" y="230" />
              <mxPoint x="700" y="340" />
            </Array>
          </mxGeometry>
        </mxCell>
        <mxCell id="krKL_mxPOFj_XPniPA5U-40" value="" style="shape=flexArrow;endArrow=classic;html=1;rounded=0;entryX=0.438;entryY=1;entryDx=0;entryDy=0;entryPerimeter=0;endWidth=15;endSize=3.335;width=5;fillColor=#dae8fc;strokeColor=#6c8ebf;" edge="1" parent="1">
          <mxGeometry width="50" height="50" relative="1" as="geometry">
            <mxPoint x="348" y="210" as="sourcePoint" />
            <mxPoint x="398" y="210.03999999999996" as="targetPoint" />
            <Array as="points">
              <mxPoint x="368" y="210" />
            </Array>
          </mxGeometry>
        </mxCell>
        <mxCell id="krKL_mxPOFj_XPniPA5U-41" value="&lt;font style=&quot;font-size: 10px;&quot;&gt;Events&lt;/font&gt;" style="text;html=1;align=center;verticalAlign=middle;resizable=0;points=[];autosize=1;strokeColor=none;fillColor=none;" vertex="1" parent="1">
          <mxGeometry x="340" y="185" width="50" height="30" as="geometry" />
        </mxCell>
        <mxCell id="Z8Cldq2gbz3R2F98MsAG-1" value="" style="shape=flexArrow;endArrow=classic;html=1;rounded=0;endWidth=7.5;endSize=4.835;width=5;fillColor=#ffe6cc;strokeColor=#d79b00;" edge="1" parent="1">
          <mxGeometry width="50" height="50" relative="1" as="geometry">
            <mxPoint x="540" y="227.38" as="sourcePoint" />
            <mxPoint x="580" y="227.38" as="targetPoint" />
            <Array as="points">
              <mxPoint x="540" y="227.38" />
            </Array>
          </mxGeometry>
        </mxCell>
        <mxCell id="Z8Cldq2gbz3R2F98MsAG-2" value="" style="shape=flexArrow;endArrow=classic;html=1;rounded=0;endWidth=6;endSize=4.335;width=6;fillColor=#ffe6cc;strokeColor=#d79b00;" edge="1" parent="1">
          <mxGeometry width="50" height="50" relative="1" as="geometry">
            <mxPoint x="580" y="202.13" as="sourcePoint" />
            <mxPoint x="540" y="202.13" as="targetPoint" />
            <Array as="points" />
          </mxGeometry>
        </mxCell>
      </root>
    </mxGraphModel>
  </diagram>
</mxfile>
